# xmcd
#
# Track frame offsets: 
#        150
#        27974
#        47831
#        67738
#        97766
#        119780
#        132627
#        146416
#        163687
#        182184
#        204174
#        217802
#        230235
#        256068
#        286012
#        321223
#
# Disc length: 4623 seconds
#
# Revision: 0
# Processed by: cddbd v1.5.2PL0 Copyright (c) Steve Scherf et al.
# Submitted via: ExactAudioCopy v1.0b3
#
DISCID=e5120d10
DTITLE=Gary Moore - Best Of [CD1]
DYEAR=2012
DGENRE=Blues
TTITLE0=Still Got The Blues
TTITLE1=Cold Day In Hell
TTITLE2=Oh Pretty Woman
TTITLE3=Story Of The Blues
TTITLE4=Separate Ways
TTITLE5=Since I Met You Baby
TTITLE6=I Loved Another Woman
TTITLE7=Wake Up This Morning
TTITLE8=Further On Up The Road
TTITLE9=The Sky Is Crying
TTITLE10=Left Me With The Blues
TTITLE11=Mean Cruel Woman
TTITLE12=The Blues Is Alright
TTITLE13=If You Be My Baby
TTITLE14=Need Your Love So Bad
TTITLE15=Parisienne Walkways
EXTD=
EXTT0=
EXTT1=
EXTT2=
EXTT3=
EXTT4=
EXTT5=
EXTT6=
EXTT7=
EXTT8=
EXTT9=
EXTT10=
EXTT11=
EXTT12=
EXTT13=
EXTT14=
EXTT15=
PLAYORDER=
